<svg xmlns="http://www.w3.org/2000/svg" width="1729" height="2500" viewBox="0 0 345.859 500">
<g fill="#fff"><path d="M 173.146 232.658 L 201.336 106.569 C 233.468 95.919 253.103 106.914 254.644 122.049 C 254.644 122.049 277.329 111.349 288.769 94.171 C 244.123 73.483 199.264 72.55 199.264 72.55 L 173.088 98.266 L 173.147 98.262 L 146.97 72.545 C 146.97 72.545 102.11 73.479 57.47 94.167 C 68.901 111.345 91.594 122.045 91.594 122.045 C 94.646 104.547 119.109 93.952 144.671 106.54 L 173.146 232.658" style="fill: rgb(227, 25, 55);"></path><path d="M 173.132 63.341 C 209.222 63.065 250.53 68.924 292.819 87.355 C 298.471 77.182 299.924 68.763 299.924 68.763 C 253.696 50.474 210.405 44.215 173.127 44.058 C 135.85 44.215 92.561 50.475 46.34 68.763 C 46.34 68.763 48.402 78.224 53.44 87.355 C 95.72 68.924 137.037 63.065 173.128 63.341 L 173.132 63.341" style="fill: rgb(227, 25, 55);"></path></g>
</svg>