<svg xmlns="http://www.w3.org/2000/svg" width="1729" height="2500" viewBox="0 0 345.859 500">
<g fill="#fff"><path d="M 173.146 237.142 L 208.623 106.569 C 242.437 106.569 253.103 106.914 254.644 122.049 C 254.644 122.049 277.329 111.349 288.769 94.171 C 244.123 73.483 199.264 72.55 199.264 72.55 L 173.088 98.266 L 173.147 98.262 L 146.97 72.545 C 146.97 72.545 102.11 73.479 57.47 94.167 C 68.901 111.345 91.594 122.045 91.594 122.045 C 93.143 106.909 103.796 106.564 137.384 106.54 L 173.146 237.142" style="fill: rgb(227, 25, 55);"></path><path d="M 173.132 63.341 C 209.222 63.065 250.53 68.924 292.819 87.355 C 298.471 77.182 299.924 65.96 299.924 65.96 C 253.696 47.671 210.405 41.412 173.127 41.255 C 135.85 41.412 92.561 47.672 46.34 65.96 C 46.34 65.96 48.402 78.224 53.44 87.355 C 95.72 68.924 137.037 63.065 173.128 63.341 L 173.132 63.341" style="fill: rgb(227, 25, 55);"></path></g>
</svg>