<svg width="235" height="174" fill="none" xmlns="http://www.w3.org/2000/svg"><path d="M212.693 1.409c-5.173 1.391.025-3.581-96.153 91.946l-37.798 37.543-24.878-24.605C39.747 92.331 28.113 81.138 26.968 80.416c-2.689-1.696-7.015-2.652-10.628-2.349-3.302.277-7.431 2.112-10.073 4.476-6.337 5.671-7.271 16.311-2.03 23.112.793 1.03 15.454 15.809 32.58 32.843 30.246 30.085 31.225 31.014 34.208 32.48 2.707 1.33 3.484 1.529 6.569 1.676 2.128.102 4.225-.027 5.351-.328 5.117-1.371 1.885 1.691 76.835-72.769 38.665-38.411 70.867-70.636 71.561-71.612 2.683-3.774 3.681-10.184 2.296-14.75-2.735-9.012-11.957-14.202-20.944-11.786" fill-rule="evenodd" fill="#000"/></svg>