<svg width="154" height="154" viewBox="0 0 154 154" fill="none" xmlns="http://www.w3.org/2000/svg">
<path d="M77.4762 71.643C76.9996 71.596 76.4278 71.596 75.9036 71.643C70.4339 71.46 65.2512 69.187 61.4531 65.3053C57.6551 61.4236 55.5398 56.238 55.5554 50.8466C55.5554 39.3453 64.9908 30.0034 76.7137 30.0034C79.4891 29.9541 82.2472 30.4438 84.8306 31.4445C87.4139 32.4452 89.7718 33.9374 91.7697 35.8358C93.7677 37.7342 95.3665 40.0017 96.4748 42.5088C97.5832 45.0159 98.1794 47.7135 98.2295 50.4476C98.2795 53.1817 97.7825 55.8987 96.7666 58.4436C95.7507 60.9884 94.236 63.3113 92.3089 65.2794C90.3818 67.2476 88.08 68.8226 85.535 69.9144C82.99 71.0063 80.2516 71.5936 77.4762 71.643V71.643ZM53.6492 88.9654C42.1169 96.5704 42.1169 108.964 53.6492 116.522C66.754 125.159 88.246 125.159 101.351 116.522C112.883 108.917 112.883 96.5234 101.351 88.9654C88.2936 80.3746 66.8017 80.3746 53.6492 88.9654V88.9654Z" stroke="#F2F2F2" stroke-width="7" stroke-linecap="round" stroke-linejoin="round"/>
</svg>
