<svg width="154" height="154" viewBox="0 0 154 154" fill="none" xmlns="http://www.w3.org/2000/svg">
<path d="M40.1954 59.4632H35.5949M118.405 59.4632H113.805M77 36.7715V45.8482M70.0991 45.8482H83.9009M49.3966 91.2316H63.1983M90.8017 91.2316H104.603M93.148 36H60.852C49.3966 36 46.8663 41.6275 45.3941 48.5258L40.1954 73.0782H113.805L108.606 48.5258C107.134 41.6275 104.603 36 93.148 36V36ZM122.96 113.106C123.466 118.416 119.141 123 113.621 123H104.971C100.003 123 99.3128 120.912 98.4387 118.326L97.5185 115.603C96.2304 111.881 95.4023 109.385 88.7775 109.385H65.2225C58.5977 109.385 57.6316 112.199 56.4815 115.603L55.5613 118.326C54.6872 120.912 53.9971 123 49.0285 123H40.3795C34.8588 123 30.5342 118.416 31.0403 113.106L33.6166 85.4679C34.2607 78.6604 35.5949 73.0782 47.6484 73.0782H106.352C118.405 73.0782 119.739 78.6604 120.383 85.4679L122.96 113.106Z" stroke="#F2F2F2" stroke-width="7" stroke-linecap="round" stroke-linejoin="round"/>
</svg>
