<svg width="154" height="154" viewBox="0 0 154 154" fill="none" xmlns="http://www.w3.org/2000/svg">
<path d="M38.0805 53.9114L38.083 53.9094L63.1503 34.3552C63.151 34.3546 63.1518 34.354 63.1525 34.3534C63.1526 34.3533 63.1527 34.3533 63.1527 34.3532C69.4699 29.4366 79.8246 29.1938 86.3822 33.8048L86.3855 33.8071L115.13 53.9686L115.136 53.9729C117.337 55.5098 119.463 58.0651 121.042 61.0917C122.621 64.1183 123.5 67.3235 123.5 70.0076V103.905C123.5 114.692 114.733 123.5 103.93 123.5H50.0698C39.2713 123.5 30.5 114.696 30.5 103.858V69.3557C30.5 66.8504 31.2914 63.8058 32.7237 60.8863C34.1554 57.9677 36.0848 55.4653 38.0805 53.9114Z" stroke="white" stroke-width="7"/>
<mask id="path-4-inside-2_17_45" fill="white">
<path d="M61 92C61 87.5817 64.5817 84 69 84H84C88.4183 84 92 87.5817 92 92V120H61V92Z"/>
</mask>
<path d="M 61 92 C 61 83.716 60.716 84 69 84 L 84 84 C 92.284 84 92 83.716 92 92 L 85 92 C 85 91.448 84.552 91 84 91 L 69 91 C 68.448 91 68 91.448 68 92 L 61 92 Z M 92 120 L 61 120 L 92 120 Z M 61 120 L 61 92 C 61 83.716 60.716 84 69 84 L 69 91 C 68.448 91 68 91.448 68 92 L 68 120 L 61 120 Z M 84 84 C 92.284 84 92 83.716 92 92 L 92 120 L 85 120 L 85 92 C 85 91.448 84.552 91 84 91 L 84 84 Z" mask="url(#path-4-inside-2_17_45)" style="fill-rule: nonzero; paint-order: fill; stroke-width: 0px; stroke: rgb(255, 255, 255); fill: rgb(255, 255, 255);"></path>
<path d="M154 147H0V161H154V147Z" fill="white" mask="url(#path-1-inside-1_17_45)"/>
</svg>
