<svg width="154" height="154" viewBox="0 0 154 154" fill="none" xmlns="http://www.w3.org/2000/svg">
<path d="M28.4859 40.7179C32.3983 23.7607 57.8781 23.7607 61.7416 40.7179C64.0402 50.6667 57.7314 59.0963 52.254 64.3403C48.2437 68.163 41.9349 68.114 37.9247 64.3403C32.4961 59.0963 26.1873 50.6667 28.4859 40.7179ZM92.063 99.5289C95.9755 82.5717 121.602 82.5717 125.514 99.5289C127.813 109.478 121.504 117.907 115.978 123.151C111.968 126.974 105.61 126.925 101.6 123.151C96.0733 117.907 89.7645 109.478 92.063 99.5289Z" stroke="#F2F2F2" stroke-width="7"/>
<path d="M76.9764 43H90.1411C99.2286 43 103.453 54.1229 96.6252 60.0486L57.3768 94C50.5489 99.8771 54.7733 111 63.8118 111H76.9764" stroke="#F2F2F2" stroke-width="6" stroke-linecap="round" stroke-linejoin="round"/>
<path d="M45 45H45.059M108.941 104H109" stroke="#F2F2F2" stroke-width="10" stroke-linecap="round" stroke-linejoin="round"/>
</svg>
