<svg width="154" height="154" viewBox="0 0 154 154" fill="none" xmlns="http://www.w3.org/2000/svg">
<path d="M63.92 77H90.08M140 92.4167V61.5833M14 92.4167V61.5833M108.08 114C122.48 114 126.08 105.675 126.08 95.5V58.5C126.08 48.325 122.48 40 108.08 40C93.68 40 90.08 48.325 90.08 58.5V95.5C90.08 105.675 93.68 114 108.08 114ZM45.92 114C31.52 114 27.92 105.675 27.92 95.5V58.5C27.92 48.325 31.52 40 45.92 40C60.32 40 63.92 48.325 63.92 58.5V95.5C63.92 105.675 60.32 114 45.92 114Z" stroke="#F2F2F2" stroke-width="7" stroke-linecap="round" stroke-linejoin="round"/>
</svg>
