<svg width="232" height="219" fill="none" xmlns="http://www.w3.org/2000/svg"><path d="M183.327.387c-1.645.389-3.087 1.449-4.204 3.089-1.026 1.509-1.193 4.838-.324 6.5.819 1.567 2.636 3.139 4.121 3.565.736.211 6.631.379 13.299.379h11.978l-14.748 14.79c-16.048 16.094-15.549 15.452-15.101 19.425.221 1.957 1.31 3.513 3.318 4.74l1.421.868 21.867.002 21.868.002 1.747-1.108c2.316-1.469 3.182-3.294 2.968-6.253-.119-1.648-.427-2.58-1.18-3.567-1.947-2.552-2.279-2.606-16.105-2.606-6.827 0-12.412-.131-12.412-.292 0-.16 6.449-6.729 14.332-14.596 7.883-7.868 14.582-14.775 14.887-15.349.305-.574.554-1.984.554-3.133 0-3.22-2.032-5.727-5.25-6.473-1.853-.43-41.208-.414-43.036.017m-76.8 54c-6.134 3.223-6.466 11.31-.607 14.754l1.767 1.039 20.783.109c11.431.061 20.783.235 20.783.388 0 .153-10.441 10.718-23.203 23.478-25.44 25.434-24.668 24.52-24.237 28.69.305 2.954 1.744 5.003 4.495 6.398l2.097 1.064h31.303c22.336 0 31.724-.127 32.775-.442 5.887-1.763 7.717-9.714 3.209-13.941-2.422-2.271-2.124-2.244-24.493-2.244-11.278 0-20.506-.129-20.506-.286 0-.157 10.433-10.727 23.185-23.49 16.075-16.089 23.366-23.645 23.78-24.642.793-1.915.74-4.78-.126-6.685-.756-1.664-3.022-3.882-4.567-4.47-.561-.213-14.104-.354-33.114-.345-28.517.014-32.296.085-33.324.625M5.972 120.011c-2.257 1.051-4.644 3.637-5.198 5.63-1.107 3.984.147 8.479 3.031 10.864 2.82 2.332 2.471 2.308 33.579 2.308 15.592 0 28.349.131 28.349.291 0 .16-14.372 14.646-31.939 32.19-21.851 21.824-32.168 32.388-32.665 33.446-.965 2.057-.974 6.026-.019 8.129.925 2.036 2.903 3.98 5.072 4.984 1.735.803 1.969.807 43.698.807 47.652 0 44.021.25 47.299-3.254 1.906-2.038 2.578-3.811 2.575-6.799-.003-3.78-3.144-8.142-6.542-9.086-.853-.237-12.326-.384-30.089-.386-15.79-.001-28.71-.13-28.71-.286 0-.157 14.347-14.642 31.881-32.19 24.62-24.639 32.06-32.302 32.665-33.646 1.188-2.637 1.08-5.95-.279-8.552-1.207-2.31-3.589-4.351-5.793-4.963-.952-.265-15.614-.4-43.2-.399l-41.76.002-1.955.91" fill-rule="evenodd" fill="#000"/></svg>